<svg width="496" height="320" viewBox="0 0 496 320" fill="none" xmlns="http://www.w3.org/2000/svg">
<g clip-path="url(#clip0_27_323)">
<path d="M308.701 59.6541C290.825 176.155 537.384 101.052 489.024 215.032C462.686 277.115 363.776 211.78 392.304 316.841C404.86 363.071 401.144 440.995 320.514 393.525C276.026 367.328 263.236 333.949 214.784 373.544C174.13 406.78 131.65 409.457 97.5023 380.818C57.3957 347.191 96.6288 317.155 106.264 284.468C119.89 238.199 -28.385 209.704 5.81517 159.504C40.0153 109.305 112.236 203.096 133.463 153.066C136.827 145.126 102.509 -64.3296 193.01 21.1296C217.431 42.2071 228.631 93.9344 259.063 42.0895C293.641 -16.8595 315.22 24.8514 308.701 59.6541Z" stroke="#B18876" stroke-opacity="0.3" stroke-width="1.0322" stroke-miterlimit="10"/>
<path d="M304.151 62.2792C288.804 176.612 528.192 98.8449 482.883 210.984C458.201 272.062 360.503 209.926 390.127 312.049C403.165 356.999 400.858 433.16 321.309 388.158C277.422 363.319 264.357 330.945 217.718 370.436C178.576 403.581 137.309 406.454 103.292 379.526C63.7064 347.609 101.362 317.364 110.228 285.278C122.758 239.858 -23.0913 215.894 10.0267 164.937C43.1316 115.391 114.687 205.708 134.584 156.488C137.739 148.679 100.71 -55.1488 190.506 26.6277C214.654 46.8041 226.519 97.1211 255.373 45.9814C288.165 -12.1711 310.031 28.1948 304.151 62.2792Z" stroke="#B18876" stroke-opacity="0.3" stroke-width="1.0322" stroke-miterlimit="10"/>
<path d="M299.6 64.9172C286.783 177.069 518.987 96.6509 476.729 206.949C453.716 267.021 357.231 208.085 387.962 307.269C401.483 350.913 400.571 425.324 322.118 382.79C278.83 359.323 265.504 327.942 220.652 367.315C183.009 400.381 142.968 403.437 109.094 378.22C70.0301 348.027 106.108 317.56 114.192 286.074C125.627 241.503 -17.7976 222.071 14.2251 170.344C46.2348 121.463 117.138 208.294 135.679 159.896C138.626 152.218 98.8845 -45.9813 188.003 32.1125C211.877 51.4009 224.407 100.307 251.67 49.8599C282.663 -7.49591 304.855 31.551 299.6 64.9172Z" stroke="#B18876" stroke-opacity="0.3" stroke-width="1.0322" stroke-miterlimit="10"/>
<path d="M295.05 67.568C284.749 177.539 509.795 94.4699 470.588 202.913C449.231 261.98 353.958 206.243 385.785 302.489C399.801 344.853 400.284 417.488 322.913 377.436C280.225 355.327 266.639 324.938 223.585 364.22C187.455 397.181 148.64 400.433 114.883 376.927C76.3408 348.445 110.854 317.769 118.155 286.884C128.495 243.162 -12.504 228.261 18.4365 175.776C49.3509 127.549 119.59 210.918 136.801 163.318C139.539 155.77 97.0851 -36.8009 185.5 37.6233C209.112 56.0106 222.307 103.507 247.98 53.7645C277.187 -2.80785 299.678 34.907 295.05 67.568Z" stroke="#B18876" stroke-opacity="0.3" stroke-width="1.0322" stroke-miterlimit="10"/>
<path d="M290.499 70.2061C282.728 178.01 500.603 92.2631 464.447 198.878C444.758 256.939 350.685 204.402 383.621 297.71C398.12 338.781 399.997 409.666 323.708 372.082C281.607 351.344 267.76 321.961 226.519 361.125C191.902 394.008 154.298 397.43 120.685 375.647C82.6645 348.889 115.6 317.991 122.132 287.707C131.364 244.833 -7.19727 234.464 22.648 181.222C52.4672 133.648 122.054 213.544 137.922 166.753C140.438 159.335 95.2858 -27.607 183.009 43.1345C206.348 60.6338 220.208 106.72 244.304 57.6693C271.698 1.86753 294.489 38.2634 290.499 70.2061Z" stroke="#B18876" stroke-opacity="0.3" stroke-width="1.0322" stroke-miterlimit="10"/>
<path d="M285.936 72.8439C280.694 178.453 491.384 90.0689 458.279 194.83C440.247 251.885 347.386 202.534 381.43 292.917C396.411 332.695 399.697 401.817 324.491 366.701C282.989 347.321 268.881 318.931 229.44 357.991C196.335 390.782 159.944 394.4 126.461 374.328C88.9621 349.28 120.333 318.173 126.083 288.49C134.219 246.479 -1.91667 240.628 26.8464 186.615C55.5704 139.694 124.505 216.116 139.03 170.135C141.338 162.835 93.4734 -18.4658 180.493 48.593C203.571 65.1912 218.096 109.88 240.601 61.5216C266.208 6.54248 289.313 41.6194 285.936 72.8439Z" stroke="#B18876" stroke-opacity="0.3" stroke-width="1.0322" stroke-miterlimit="10"/>
<path d="M281.385 75.4822C278.673 178.924 482.192 87.8884 452.138 190.795C435.775 246.845 344.127 200.694 379.266 288.138C394.729 326.623 399.41 393.982 325.299 361.347C284.397 343.326 270.016 315.928 232.373 354.883C200.781 387.583 165.616 391.396 132.263 373.035C95.2728 349.699 125.079 318.383 130.047 289.3C137.087 248.124 3.37698 246.818 31.0579 192.048C58.6866 145.793 126.956 218.728 140.152 173.57C142.238 166.4 91.6611 -9.28485 178.016 54.1044C200.82 69.8145 216.01 113.08 236.924 65.4266C260.719 11.2311 284.136 44.976 281.385 75.4822Z" stroke="#B18876" stroke-opacity="0.3" stroke-width="1.0322" stroke-miterlimit="10"/>
<path d="M276.835 78.1198C276.652 179.381 472.987 85.6811 445.984 186.746C431.277 241.79 340.841 198.852 377.088 283.345C393.048 320.537 399.124 386.146 326.095 355.98C285.792 339.329 271.163 312.924 235.307 351.788C205.214 384.396 171.275 388.393 138.065 371.742C101.61 350.129 129.825 318.591 134.023 290.109C139.969 249.796 8.68372 253.008 35.2693 197.468C61.7898 151.865 129.421 221.34 141.273 176.978C143.15 169.939 89.8618 -0.117617 175.512 59.5758C198.043 74.3849 213.898 116.253 233.234 69.3049C255.217 15.906 278.96 48.3188 276.835 78.1198Z" stroke="#B18876" stroke-opacity="0.3" stroke-width="1.0322" stroke-miterlimit="10"/>
<path d="M272.284 80.7577C274.631 179.838 463.795 83.4871 439.843 182.711C426.791 236.749 337.568 197.01 374.924 278.565C391.366 314.465 398.85 378.324 326.89 350.612C287.187 335.333 272.284 309.92 238.241 348.666C209.66 381.184 176.933 385.376 143.868 370.436C107.92 350.534 134.571 318.787 138 290.906C142.851 251.441 13.9904 259.185 39.4938 202.887C64.919 157.937 131.885 223.938 142.407 180.386C144.076 173.478 88.0755 9.04988 173.035 65.0606C195.305 78.9817 211.812 119.439 229.557 73.1704C249.741 20.5942 273.784 51.675 272.284 80.7577Z" stroke="#B18876" stroke-opacity="0.3" stroke-width="1.0322" stroke-miterlimit="10"/>
<path d="M267.734 83.3959C272.61 180.295 454.603 81.2933 433.702 178.662C422.319 231.696 334.309 195.156 372.76 273.785C389.684 308.392 398.563 370.489 327.698 345.258C288.596 331.337 273.432 306.93 241.174 345.559C214.106 377.984 182.592 382.359 149.657 369.143C114.244 350.965 139.317 319.009 141.964 291.716C145.719 253.113 19.2841 265.375 43.7053 208.32C68.0352 164.023 134.349 226.55 143.529 183.821C144.989 177.043 86.2762 18.2437 170.544 70.5718C192.54 83.6048 209.725 122.652 225.88 77.0883C244.251 25.2695 268.594 55.0314 267.734 83.3959Z" stroke="#B18876" stroke-opacity="0.3" stroke-width="1.0322" stroke-miterlimit="10"/>
<path d="M263.183 86.0336C270.589 180.752 445.41 79.0992 427.548 174.627C417.821 226.655 331.023 193.302 370.582 268.993C387.989 302.293 398.276 362.64 328.494 339.878C289.991 327.328 274.553 303.913 244.108 342.437C218.552 374.772 188.264 379.343 155.459 367.837C120.555 351.37 144.063 319.205 145.941 292.512C148.6 254.758 24.5907 271.552 47.9167 213.726C71.1514 170.082 136.814 229.136 144.65 187.216C145.888 180.556 84.4768 27.398 168.054 76.0434C189.776 88.1753 207.613 125.812 222.203 80.9406C238.762 29.9445 263.418 58.3743 263.183 86.0336Z" stroke="#B18876" stroke-opacity="0.3" stroke-width="1.0322" stroke-miterlimit="10"/>
<path d="M258.633 88.6589C268.568 181.209 436.205 76.8926 421.406 170.579C413.349 221.601 327.75 191.448 368.418 264.2C386.307 296.221 397.989 354.805 329.289 334.524C291.386 323.332 275.687 300.91 247.042 339.343C222.999 371.599 193.923 376.339 161.248 366.558C126.865 351.801 148.796 319.427 149.891 293.348C151.443 256.43 29.8714 277.769 52.1021 219.185C74.2416 176.208 139.239 231.787 145.745 190.677C146.775 184.147 82.6515 36.6051 165.525 81.5808C186.986 92.8117 205.488 129.038 218.474 84.8717C233.273 34.6331 258.242 61.7309 258.633 88.6589Z" stroke="#B18876" stroke-opacity="0.3" stroke-width="1.0322" stroke-miterlimit="10"/>
<path d="M254.082 91.2964C266.547 181.666 427.013 74.6982 415.252 166.53C408.85 216.547 324.465 189.606 366.24 259.407C384.625 290.135 397.702 346.956 330.084 329.143C292.781 319.322 276.822 297.892 249.962 336.221C227.432 368.386 199.568 373.322 167.037 365.252C133.176 352.218 153.542 319.623 153.855 294.131C154.311 258.062 35.165 283.932 56.3136 224.578C77.3448 182.24 141.703 234.36 146.866 194.059C147.688 187.66 80.8521 45.7591 163.034 87.0522C184.222 97.395 203.389 132.211 214.797 88.7368C227.784 39.3078 253.065 65.0866 254.082 91.2964Z" stroke="#B18876" stroke-opacity="0.3" stroke-width="1.0322" stroke-miterlimit="10"/>
<path d="M249.519 93.9347C264.513 182.123 417.808 72.5046 409.098 162.495C404.365 211.506 321.192 187.752 364.05 254.628C382.917 284.063 397.402 339.121 330.867 323.789C294.163 315.327 277.93 294.902 252.883 333.113C231.865 365.187 205.214 370.319 172.826 363.946C139.487 352.624 158.275 319.819 157.819 294.928C157.18 259.721 40.4587 290.109 60.512 229.998C80.4479 188.326 144.141 236.959 147.962 197.468C148.574 191.212 79.0267 54.927 160.518 92.5374C181.432 101.979 201.263 135.398 211.094 92.6157C222.294 43.9965 247.876 68.4432 249.519 93.9347Z" stroke="#B18876" stroke-opacity="0.3" stroke-width="1.0322" stroke-miterlimit="10"/>
<path d="M244.982 96.5854C262.492 182.593 408.616 70.3234 402.97 158.473C399.893 206.478 317.932 185.923 361.898 249.861C381.248 277.99 397.129 331.311 331.688 318.434C295.571 311.33 279.09 291.911 255.843 330.005C236.324 361.987 210.912 367.315 178.641 362.653C145.823 353.054 163.034 320.028 161.809 295.738C160.061 261.379 45.7784 296.299 64.7495 235.43C83.5902 194.412 146.632 239.583 149.109 200.889C149.5 194.751 77.2535 64.0942 158.053 98.035C178.707 106.589 199.203 138.584 207.444 96.507C216.805 48.6713 242.7 71.786 244.982 96.5854Z" stroke="#B18876" stroke-opacity="0.3" stroke-width="1.0322" stroke-miterlimit="10"/>
<path d="M240.418 99.2238C260.471 183.064 399.41 68.1299 396.803 154.425C395.381 201.425 314.634 184.069 359.708 245.069C379.54 271.918 396.829 323.463 332.47 313.068C296.953 307.335 280.212 288.908 258.75 326.897C240.744 358.801 216.544 364.299 184.417 361.36C152.121 353.473 167.754 320.224 165.759 296.548C162.917 263.038 51.059 302.49 68.9349 240.85C86.6804 200.485 149.07 242.182 150.204 204.311C150.387 198.304 75.4281 73.2752 155.537 103.533C175.916 111.186 197.065 141.784 203.728 100.399C211.316 53.3469 237.524 75.1427 240.418 99.2238Z" stroke="#B18876" stroke-opacity="0.3" stroke-width="1.0322" stroke-miterlimit="10"/>
<path d="M235.868 101.862C258.45 183.521 390.205 65.9358 390.661 150.389C390.909 196.384 311.374 182.228 357.543 240.289C377.871 265.846 396.555 315.627 333.266 307.713C298.348 303.338 281.346 285.904 261.684 323.802C245.19 355.601 222.203 361.295 190.207 360.081C158.432 353.904 172.5 320.446 169.723 297.383C165.785 264.722 56.3527 308.706 73.1463 246.309C89.7966 206.596 151.521 244.82 151.326 207.745C151.299 201.869 73.6157 82.4687 153.034 109.044C173.152 115.809 194.966 144.983 200.038 104.317C205.827 58.035 232.334 78.4987 235.868 101.862Z" stroke="#B18876" stroke-opacity="0.3" stroke-width="1.0322" stroke-miterlimit="10"/>
<path d="M231.317 104.499C256.416 183.965 381.013 63.7418 384.507 146.341C386.411 191.33 308.088 180.373 355.366 235.509C376.176 259.773 396.255 307.805 334.061 302.359C299.744 299.355 282.467 282.914 264.618 320.694C249.636 352.402 227.875 358.291 196.009 358.788C164.755 354.334 177.246 320.655 173.687 298.193C168.654 266.394 61.6593 314.896 77.3578 251.742C92.9128 212.695 153.985 247.432 152.447 211.18C152.199 205.434 71.8164 91.6623 150.543 114.555C170.388 120.419 192.866 148.195 196.361 108.208C200.337 62.7102 227.158 81.8549 231.317 104.499Z" stroke="#B18876" stroke-opacity="0.3" stroke-width="1.0322" stroke-miterlimit="10"/>
<path d="M226.767 107.137C254.395 184.435 371.821 61.5479 378.366 142.306C381.939 186.289 304.816 178.519 353.202 230.716C374.494 253.687 395.981 299.956 334.869 296.979C301.152 295.333 283.615 279.884 267.564 317.573C254.083 349.202 233.534 355.262 201.811 357.469C171.079 354.739 182.005 320.851 177.663 298.977C171.535 268.026 66.953 321.06 81.5693 257.148C96.016 218.741 156.437 250.018 153.568 214.575C153.112 208.947 70.0171 100.817 148.053 120.027C167.624 124.989 190.78 151.369 192.684 112.074C194.848 67.3853 221.982 85.2111 226.767 107.137Z" stroke="#B18876" stroke-opacity="0.3" stroke-width="1.0322" stroke-miterlimit="10"/>
<path d="M222.216 109.775C252.374 184.892 362.615 59.3538 372.212 138.257C377.44 181.235 301.53 176.677 351.024 225.937C372.799 247.615 395.681 292.133 335.665 291.624C302.534 291.337 284.749 276.893 270.485 314.465C258.516 346.002 239.192 352.258 207.6 356.176C177.39 355.157 186.738 321.059 181.627 299.786C174.391 269.672 72.2597 327.25 85.7807 262.567C99.1322 224.826 158.901 252.629 154.69 217.997C154.025 212.499 68.2178 109.997 145.563 125.512C164.86 129.586 188.668 154.555 188.994 115.952C189.359 72.0734 216.805 88.5672 222.216 109.775Z" stroke="#B18876" stroke-opacity="0.3" stroke-width="1.0322" stroke-miterlimit="10"/>
<path d="M217.666 112.413C250.353 185.349 353.423 57.1599 366.071 134.222C372.968 176.194 298.27 174.823 348.86 221.144C371.13 241.529 395.407 284.285 336.46 286.257C303.942 287.341 285.87 273.89 273.419 311.357C262.962 342.803 244.851 349.254 213.402 354.883C183.713 355.588 191.484 321.268 185.604 300.609C177.272 271.356 77.5664 333.453 89.9922 268.013C102.248 230.925 161.365 255.254 155.811 221.431C154.937 216.064 66.4185 119.191 143.072 131.036C162.108 134.209 186.582 157.768 185.317 119.87C183.87 76.7617 211.616 91.9104 217.666 112.413Z" stroke="#B18876" stroke-opacity="0.3" stroke-width="1.0322" stroke-miterlimit="10"/>
<path d="M213.115 115.051C248.332 185.806 344.218 54.953 359.93 130.174C368.483 171.14 294.997 172.982 346.695 216.364C369.448 235.457 395.134 276.449 337.269 280.89C305.337 283.345 287.018 270.886 276.352 308.249C267.408 339.604 250.51 346.238 219.191 353.577C190.024 355.993 196.217 321.464 189.568 301.392C180.141 272.989 82.847 339.617 94.2036 273.407C105.365 236.972 163.817 257.827 156.932 224.814C155.837 219.577 64.6061 128.319 140.569 136.494C159.331 138.78 184.47 160.915 181.627 123.723C178.381 81.4369 206.44 95.2666 213.115 115.051Z" stroke="#B18876" stroke-opacity="0.3" stroke-width="1.0322" stroke-miterlimit="10"/>
<path d="M208.565 117.689C246.311 186.263 335.026 52.7588 353.788 126.138C363.998 166.099 291.725 171.127 344.531 211.571C367.779 229.371 394.86 268.614 338.077 275.522C306.745 279.335 288.165 267.869 279.299 305.127C271.867 336.391 256.195 343.221 225.006 352.271C196.348 356.411 200.976 321.66 193.544 302.189C183.022 274.634 88.1537 345.78 98.4151 278.826C108.481 243.044 166.281 260.439 158.053 228.222C156.75 223.116 62.8067 137.5 138.078 141.979C156.567 143.363 182.37 164.101 177.937 127.601C172.891 86.1119 201.263 98.6226 208.565 117.689Z" stroke="#B18876" stroke-opacity="0.3" stroke-width="1.0322" stroke-miterlimit="10"/>
<path d="M204.014 120.327C244.29 186.72 325.834 50.5649 347.634 122.09C359.512 161.045 288.452 169.273 342.354 206.792C366.071 223.298 394.56 260.778 338.859 270.168C308.127 275.339 289.274 264.879 282.22 302.032C276.287 333.204 261.84 340.217 230.783 350.991C202.645 356.841 205.709 321.882 197.495 303.025C185.865 276.319 93.4343 351.997 102.613 284.272C111.584 249.156 168.719 263.064 159.149 231.669C157.636 226.694 60.9813 146.693 135.562 147.503C153.79 147.999 180.245 167.327 174.234 131.519C167.402 90.7871 196.087 101.966 204.014 120.327Z" stroke="#B18876" stroke-opacity="0.3" stroke-width="1.0322" stroke-miterlimit="10"/>
<path d="M199.464 122.965C242.27 187.19 316.628 48.3711 341.493 118.055C355.027 156.005 285.179 167.432 340.189 201.999C364.402 217.213 394.273 252.93 339.668 264.788C309.536 271.33 290.421 261.862 285.166 298.898C280.759 329.992 267.512 337.188 236.598 349.672C208.982 357.233 210.468 322.065 201.485 303.795C188.759 277.951 98.7671 358.161 106.851 289.665C114.713 255.202 171.209 265.636 160.296 235.052C158.562 230.207 59.2081 155.835 133.098 152.962C151.052 152.557 178.185 170.474 170.584 135.371C161.913 95.4755 190.898 105.322 199.464 122.965Z" stroke="#B18876" stroke-opacity="0.3" stroke-width="1.0322" stroke-miterlimit="10"/>
<path d="M194.9 125.603C240.236 187.647 307.423 46.1904 335.339 114.02C350.542 150.964 281.894 165.603 338.012 197.233C362.707 211.154 393.986 245.121 340.463 259.447C310.931 267.36 291.555 258.885 288.087 295.816C285.179 326.819 273.171 334.197 242.387 348.406C215.293 357.691 215.201 322.3 205.436 304.644C191.615 279.649 104.048 364.377 111.036 295.124C117.803 261.314 173.648 268.275 161.391 238.513C159.449 233.785 57.3827 165.055 130.581 158.486C148.275 157.193 176.06 173.7 166.881 139.289C156.424 100.151 185.721 108.679 194.9 125.603Z" stroke="#B18876" stroke-opacity="0.3" stroke-width="1.0322" stroke-miterlimit="10"/>
<path d="M190.35 128.241C238.202 188.104 298.218 43.9832 329.185 109.971C346.043 145.91 278.608 163.736 335.821 192.427C360.999 205.055 393.686 237.259 341.245 254.066C312.313 263.338 292.664 255.855 291.008 292.695C289.613 323.606 278.817 331.18 248.163 347.086C221.59 358.082 219.934 322.496 209.386 305.428C194.47 281.281 109.328 370.554 115.222 300.53C120.894 267.373 176.073 270.873 162.487 241.908C160.335 237.311 55.5573 174.209 128.052 163.971C145.471 161.777 173.921 176.886 163.152 143.168C150.934 104.839 180.545 112.034 190.35 128.241Z" stroke="#B18876" stroke-opacity="0.3" stroke-width="1.0322" stroke-miterlimit="10"/>
<path d="M185.8 130.879C236.194 188.574 289.026 41.7895 323.043 105.936C341.571 140.869 275.348 161.895 333.67 187.66C359.343 198.996 393.413 229.437 342.054 248.712C313.721 259.355 293.811 252.878 293.954 289.587C294.072 320.407 284.488 328.164 253.978 345.794C227.927 358.513 224.694 322.692 213.376 306.238C197.365 282.94 114.648 376.744 119.459 305.963C124.036 273.459 178.563 273.485 163.634 245.33C161.261 240.863 53.7841 183.39 125.587 169.469C142.733 166.387 171.848 180.086 159.501 147.059C145.445 109.514 175.369 115.378 185.8 130.879Z" stroke="#B18876" stroke-opacity="0.3" stroke-width="1.0322" stroke-miterlimit="10"/>
<path d="M181.249 133.517C234.16 189.032 279.834 39.5956 316.889 101.888C337.073 135.816 272.063 160.04 331.492 182.855C357.648 192.897 393.126 221.588 342.849 243.332C315.116 255.333 294.945 249.848 296.875 286.466C298.505 317.194 290.134 325.147 259.767 344.488C234.238 358.918 229.427 322.888 217.34 307.034C200.22 284.586 119.942 382.921 123.671 311.37C127.152 279.532 181.027 276.071 164.755 248.738C162.174 244.403 51.9847 192.545 123.097 174.954C139.982 170.971 169.749 183.259 155.811 150.951C139.956 114.19 170.179 118.734 181.249 133.517Z" stroke="#B18876" stroke-opacity="0.3" stroke-width="1.0322" stroke-miterlimit="10"/>
<path d="M176.699 136.155C232.152 189.475 270.628 37.4013 310.748 97.8522C332.588 130.774 268.79 158.199 329.315 178.088C355.953 186.837 392.826 213.765 343.644 237.99C316.511 251.363 296.067 246.87 299.809 283.371C302.938 314.008 295.793 322.156 265.556 343.208C240.548 359.349 234.173 323.11 221.304 307.857C203.089 286.257 125.235 389.111 127.869 316.815C130.242 285.63 183.466 278.696 165.864 252.172C163.073 247.967 50.1593 201.738 120.594 180.451C137.205 175.567 167.65 186.459 152.121 154.829C134.467 118.877 165.003 122.09 176.699 136.155Z" stroke="#B18876" stroke-opacity="0.3" stroke-width="1.0322" stroke-miterlimit="10"/>
<path d="M172.148 138.793C230.118 189.946 261.436 35.2076 304.594 93.804C328.102 125.721 265.504 156.344 327.138 173.282C354.258 180.739 392.539 205.917 344.44 232.61C317.893 247.341 297.201 243.841 302.729 280.25C307.371 310.795 301.452 319.127 271.346 341.889C246.859 359.754 238.906 323.293 225.254 308.64C205.944 287.889 130.516 395.275 132.068 322.222C133.345 291.69 185.917 281.294 166.959 255.581C163.96 251.493 48.347 210.906 118.077 185.949C134.415 180.177 165.525 189.645 148.418 158.721C128.977 123.566 159.827 125.446 172.148 138.793Z" stroke="#B18876" stroke-opacity="0.3" stroke-width="1.0322" stroke-miterlimit="10"/>
<path d="M167.598 141.431C228.097 190.403 252.244 33.0137 298.453 89.7688C323.617 120.68 262.232 154.503 324.973 168.503C352.576 174.666 392.265 198.095 345.235 227.243C319.288 243.332 298.335 240.85 305.663 277.142C311.817 307.609 307.11 316.123 277.135 340.596C253.17 360.172 243.639 323.502 229.218 309.45C208.8 289.561 135.81 401.478 136.266 327.642C136.449 297.762 188.368 283.893 168.08 258.99C164.86 255.033 46.5477 220.073 115.574 191.434C131.65 184.761 163.412 192.832 144.728 162.6C123.488 128.241 154.637 128.803 167.598 141.431Z" stroke="#B18876" stroke-opacity="0.3" stroke-width="1.0322" stroke-miterlimit="10"/>
</g>
<defs>
<clipPath id="clip0_27_323">
<rect width="496" height="409" fill="white"/>
</clipPath>
</defs>
</svg>
