<svg width="326" height="269" viewBox="0 0 326 269" fill="none" xmlns="http://www.w3.org/2000/svg">
<g clip-path="url(#clip0_135_50)">
<path d="M202.896 39.2346C191.147 115.857 353.2 66.4619 321.415 141.427C304.104 182.259 239.095 139.288 257.845 208.387C266.098 238.792 263.655 290.043 210.66 258.822C181.421 241.592 173.014 219.639 141.169 245.681C114.448 267.54 86.5283 269.301 64.0842 250.465C37.7238 228.348 63.5101 208.593 69.8431 187.095C78.7984 156.664 -18.6562 137.923 3.82209 104.906C26.3004 71.8902 73.768 133.577 87.7195 100.672C89.9304 95.4499 67.375 -42.3097 126.857 13.897C142.908 27.7597 150.27 61.7809 170.271 27.6824C192.998 -11.0885 207.181 16.3449 202.896 39.2346Z" stroke="white" stroke-width="1.0322" stroke-miterlimit="10"/>
<path d="M199.905 40.9612C189.819 116.158 347.159 65.0105 317.379 138.765C301.156 178.935 236.944 138.069 256.414 205.235C264.984 234.799 263.467 284.89 211.183 255.292C182.338 238.956 173.751 217.663 143.097 243.637C117.371 265.436 90.2475 267.325 67.8892 249.615C41.8716 228.623 66.6209 208.731 72.4483 187.628C80.6837 157.755 -15.1769 141.994 6.59009 108.48C28.3486 75.8928 75.3791 135.295 88.4565 102.922C90.5303 97.7862 66.1924 -36.2714 125.212 17.5131C141.083 30.7832 148.881 63.8767 167.846 30.2421C189.399 -8.00491 203.77 18.5438 199.905 40.9612Z" stroke="white" stroke-width="1.0322" stroke-miterlimit="10"/>
<path d="M196.915 42.6962C188.491 116.459 341.108 63.5676 313.334 136.111C298.208 175.62 234.793 136.858 254.991 202.091C263.878 230.796 263.278 279.736 211.714 251.762C183.263 236.327 174.505 215.688 145.025 241.584C120.284 263.331 93.9668 265.341 71.7027 248.756C46.0279 228.898 69.7402 208.86 75.0534 188.152C82.5691 158.837 -11.6976 146.057 9.34954 112.035C30.3882 79.8867 76.9902 136.995 89.1763 105.164C91.1131 100.114 64.9926 -30.2419 123.567 21.1205C139.258 33.8066 147.493 65.9725 165.412 32.793C185.783 -4.92999 200.368 20.7512 196.915 42.6962Z" stroke="white" stroke-width="1.0322" stroke-miterlimit="10"/>
<path d="M193.924 44.4397C187.154 116.768 335.067 62.1331 309.298 133.456C295.261 172.305 232.642 135.647 253.56 198.948C262.773 226.811 263.09 274.583 212.237 248.24C184.18 233.699 175.25 213.712 146.953 239.548C123.207 261.227 97.6946 263.366 75.5076 247.905C50.1756 229.173 72.8596 208.997 77.6586 188.684C84.4544 159.928 -8.21834 150.128 12.1176 115.608C32.4363 83.8891 78.6013 138.722 89.9133 107.414C91.7129 102.45 63.81 -24.2039 121.921 24.745C137.441 36.8384 146.113 68.0767 162.987 35.3611C182.183 -1.84664 196.966 22.9585 193.924 44.4397Z" stroke="white" stroke-width="1.0322" stroke-miterlimit="10"/>
<path d="M190.933 46.1748C185.825 117.077 329.025 60.6816 305.261 130.803C292.321 168.989 230.491 134.436 252.138 195.804C261.667 222.817 262.901 269.438 212.76 244.719C185.088 231.08 175.987 211.754 148.881 237.513C126.129 259.14 101.414 261.39 79.3212 247.064C54.3319 229.465 75.979 209.143 80.2724 189.225C86.3397 161.027 -4.73047 154.208 14.8856 119.19C34.4845 87.9003 80.221 140.448 90.6503 109.674C92.3043 104.795 62.6274 -18.1571 120.284 28.3697C135.624 39.879 144.734 70.1897 160.571 37.9293C178.575 1.22834 193.555 25.166 190.933 46.1748Z" stroke="white" stroke-width="1.0322" stroke-miterlimit="10"/>
<path d="M187.934 47.9097C184.489 117.369 322.966 59.2386 301.208 128.14C289.356 165.665 228.323 133.207 250.698 192.652C260.545 218.814 262.704 264.276 213.274 241.18C185.997 228.434 176.724 209.761 150.801 235.451C129.043 257.018 105.125 259.398 83.1175 246.196C58.4711 229.722 79.0898 209.263 82.869 189.74C88.2165 162.109 -1.25975 158.262 17.645 122.737C36.5241 91.8769 81.8321 142.14 91.3787 111.898C92.8955 107.097 61.4362 -12.1449 118.63 31.9598C133.799 42.8765 143.345 72.2682 158.137 40.463C174.968 4.30314 190.153 27.3733 187.934 47.9097Z" stroke="white" stroke-width="1.0322" stroke-miterlimit="10"/>
<path d="M184.943 49.6447C183.16 117.678 316.925 57.8043 297.172 125.486C286.417 162.35 226.18 131.996 249.275 189.509C259.439 214.82 262.516 259.123 213.805 237.659C186.922 225.806 177.47 207.786 152.729 233.407C131.965 254.914 108.852 257.422 86.9311 245.346C62.6188 229.997 82.2091 209.401 85.4742 190.273C90.1018 163.192 2.21955 162.333 20.413 126.31C38.5722 95.8881 83.4432 143.858 92.1157 114.157C93.4869 109.442 60.245 -6.1067 117.002 35.5845C131.991 45.9171 141.974 74.3726 155.72 43.0312C171.36 7.38668 186.751 29.5807 184.943 49.6447Z" stroke="white" stroke-width="1.0322" stroke-miterlimit="10"/>
<path d="M181.952 51.3795C181.832 117.979 310.874 56.3526 293.127 122.823C283.46 159.026 224.021 130.785 247.844 186.356C258.334 210.818 262.327 253.969 214.328 234.128C187.839 223.177 178.224 205.81 154.657 231.371C134.879 252.818 112.572 255.446 90.7446 244.495C66.7837 230.281 85.3285 209.538 88.088 190.805C91.9957 164.291 5.70742 166.404 23.181 129.875C40.6118 99.8818 85.0628 145.575 92.8527 116.399C94.0867 111.769 59.0624 -0.0773691 115.357 39.1831C130.165 48.9231 140.586 76.4595 153.295 45.5819C167.743 10.4614 183.349 31.7794 181.952 51.3795Z" stroke="white" stroke-width="1.0322" stroke-miterlimit="10"/>
<path d="M178.961 53.1146C180.504 118.28 304.833 54.9097 289.09 120.169C280.512 155.711 221.87 129.574 246.422 183.213C257.228 206.824 262.147 248.824 214.851 230.598C188.756 220.549 178.961 203.835 156.586 229.319C137.801 250.705 116.291 253.462 94.5581 243.637C70.9314 230.547 88.4479 209.667 90.7017 191.329C93.8896 165.373 9.19529 170.467 25.9576 133.439C42.6685 103.876 86.6825 147.285 93.5983 118.64C94.6952 114.097 57.8883 5.95223 113.729 42.7906C128.366 51.9465 139.215 78.5553 150.878 48.1244C164.144 13.5449 179.947 33.9868 178.961 53.1146Z" stroke="white" stroke-width="1.0322" stroke-miterlimit="10"/>
<path d="M175.97 54.8496C179.175 118.58 298.791 53.4667 285.054 117.507C277.573 152.387 219.727 128.355 244.999 180.069C256.123 202.83 261.959 243.671 215.382 227.077C189.682 217.921 179.715 201.868 158.514 227.274C140.723 248.601 120.01 251.478 98.363 242.786C75.0877 230.83 91.5673 209.813 93.3069 191.862C95.775 166.473 12.6746 174.538 28.7256 137.012C44.7167 107.878 88.3022 149.003 94.3353 120.899C95.2951 116.442 56.7057 11.9989 112.092 46.4151C126.549 54.987 137.844 80.6682 148.462 50.7011C160.536 16.6198 176.536 36.1942 175.97 54.8496Z" stroke="white" stroke-width="1.0322" stroke-miterlimit="10"/>
<path d="M172.979 56.5846C177.847 118.881 292.75 52.0238 281.009 114.853C274.616 149.071 217.568 127.135 243.568 176.917C255.009 198.819 261.77 238.509 215.905 223.538C190.599 215.284 180.452 199.884 160.442 225.222C143.645 246.488 123.738 249.494 102.177 241.927C79.2355 231.097 94.6866 209.942 95.9207 192.386C97.6689 167.555 16.1625 178.6 31.4937 140.568C46.7649 111.864 89.9219 150.703 95.0723 123.132C95.8864 118.752 55.5231 18.0198 110.455 50.014C124.732 57.9932 136.455 82.7468 146.045 53.2349C156.928 19.6947 173.134 38.393 172.979 56.5846Z" stroke="white" stroke-width="1.0322" stroke-miterlimit="10"/>
<path d="M169.989 58.3109C176.519 119.181 286.699 50.5722 276.973 112.19C271.677 145.747 215.417 125.915 242.145 173.765C253.903 194.825 261.582 233.355 216.428 220.017C191.516 212.656 181.198 197.908 162.37 223.186C146.568 244.401 127.457 247.519 105.981 241.086C83.3832 231.38 97.7974 210.088 98.5173 192.935C99.5371 168.654 19.6332 182.689 34.2445 144.158C48.7959 115.892 91.5158 152.447 95.7921 125.408C96.4691 121.114 54.3233 24.075 108.792 53.6556C122.898 61.0422 135.058 84.8682 143.594 55.8201C153.321 22.778 169.731 40.6003 169.989 58.3109Z" stroke="white" stroke-width="1.0322" stroke-miterlimit="10"/>
<path d="M166.998 60.046C175.19 119.482 280.658 49.1294 272.928 109.527C268.72 142.423 213.257 124.704 240.714 170.613C252.798 190.823 261.393 228.194 216.951 216.478C192.433 210.019 181.943 195.925 164.29 221.133C149.481 242.288 131.168 245.535 109.786 240.227C87.5309 231.655 100.917 210.217 101.122 193.451C101.422 169.728 23.1125 186.743 37.0125 147.706C50.8355 119.86 93.1355 154.139 96.5291 127.633C97.069 123.425 53.1407 30.0961 107.156 57.2546C121.081 64.0571 133.679 86.9555 141.177 58.3626C149.713 25.8531 166.329 42.8078 166.998 60.046Z" stroke="white" stroke-width="1.0322" stroke-miterlimit="10"/>
<path d="M163.998 61.7809C173.854 119.783 274.608 47.6862 268.883 106.873C265.772 139.108 211.106 123.484 239.275 167.469C251.675 186.829 261.196 223.04 217.465 212.956C193.341 207.391 182.672 193.958 166.209 219.089C152.395 240.184 134.879 243.559 113.591 239.368C91.6787 231.921 104.028 210.345 103.728 193.975C103.308 170.819 26.5918 190.805 39.772 151.27C52.8751 123.862 94.7381 155.848 97.249 129.875C97.6518 125.761 51.941 36.1254 105.502 60.8618C119.247 67.0717 132.282 89.051 138.743 60.9134C146.105 28.9364 162.919 45.0151 163.998 61.7809Z" stroke="white" stroke-width="1.0322" stroke-miterlimit="10"/>
<path d="M161.016 63.5245C172.525 120.092 268.566 46.252 264.855 104.228C262.833 135.801 208.964 122.282 237.861 164.334C250.578 182.835 261.016 217.904 218.005 209.435C194.267 204.763 183.434 191.991 168.155 217.045C155.326 238.079 138.623 241.584 117.413 238.518C95.8435 232.205 107.156 210.483 106.35 194.507C105.202 171.91 30.0882 194.877 42.5571 154.843C54.9404 127.865 96.3749 157.574 98.0031 132.125C98.2602 128.088 50.7755 42.155 103.882 64.4779C117.456 70.1037 130.928 91.1469 136.344 63.473C142.497 32.0114 159.516 47.214 161.016 63.5245Z" stroke="white" stroke-width="1.0322" stroke-miterlimit="10"/>
<path d="M158.017 65.2594C171.197 120.401 262.516 44.8089 260.802 101.565C259.868 132.477 206.795 121.062 236.421 161.182C249.455 178.841 260.819 212.742 218.519 205.905C195.175 202.134 184.171 190.015 170.066 215.001C158.231 235.984 142.326 239.6 121.21 237.667C99.9827 232.479 110.258 210.612 108.947 195.04C107.078 173 33.559 198.948 45.308 158.407C56.9714 131.859 97.9774 159.284 98.723 134.375C98.8429 130.424 49.5757 48.193 102.228 68.0937C115.622 73.1269 129.522 93.251 133.902 66.0324C138.889 35.0861 156.114 49.4212 158.017 65.2594Z" stroke="white" stroke-width="1.0322" stroke-miterlimit="10"/>
<path d="M155.026 66.9945C169.869 120.702 256.465 43.366 256.765 98.9113C256.928 129.162 204.653 119.851 234.998 158.038C248.358 174.847 260.639 207.588 219.042 202.383C196.092 199.506 184.917 188.04 171.994 212.965C161.153 233.879 146.045 237.624 125.015 236.825C104.13 232.763 113.377 210.758 111.552 195.59C108.964 174.108 37.0382 203.036 48.076 161.998C59.0195 135.879 99.5885 161.019 99.4599 136.634C99.4428 132.769 48.3845 54.2397 100.583 71.7184C113.806 76.1675 128.143 95.3555 131.476 68.6092C135.281 38.1697 152.703 51.6287 155.026 66.9945Z" stroke="white" stroke-width="1.0322" stroke-miterlimit="10"/>
<path d="M152.035 68.7293C168.532 120.994 250.424 41.923 252.72 96.2486C253.972 125.838 202.493 118.632 233.567 154.895C247.244 170.853 260.442 202.443 219.564 198.862C197.009 196.886 185.654 186.073 173.922 210.921C164.075 231.775 149.773 235.649 128.828 235.975C108.287 233.046 116.497 210.895 114.157 196.122C110.849 175.208 40.5261 207.107 50.844 165.571C61.0677 139.89 101.208 162.736 100.197 138.893C100.034 135.114 47.2019 60.2863 98.9458 75.3429C111.989 79.1994 126.763 97.4683 129.06 71.1686C131.673 41.2444 149.301 53.836 152.035 68.7293Z" stroke="white" stroke-width="1.0322" stroke-miterlimit="10"/>
<path d="M149.044 70.4644C167.203 121.303 244.382 40.4801 248.684 93.5947C251.032 122.523 200.342 117.412 232.145 151.742C246.139 166.851 260.262 197.282 220.096 195.323C197.934 194.241 186.408 184.08 175.859 208.868C166.998 229.671 153.492 233.656 132.642 235.108C112.443 233.313 119.624 211.024 116.771 196.637C112.743 176.281 44.0054 211.161 53.612 169.127C63.1073 143.866 102.819 164.437 100.934 141.126C100.634 137.425 46.0193 66.3073 97.309 78.9418C110.172 82.2056 125.392 99.5555 126.643 73.7111C128.066 44.3194 145.899 56.0434 149.044 70.4644Z" stroke="white" stroke-width="1.0322" stroke-miterlimit="10"/>
<path d="M146.053 72.1994C165.875 121.603 238.332 39.0371 244.639 90.9321C248.076 119.199 198.183 116.201 230.713 148.599C245.025 162.857 260.065 192.137 220.618 191.802C198.843 191.613 187.154 182.113 177.778 206.824C169.911 227.566 157.211 231.681 136.447 234.257C116.591 233.587 122.735 211.161 119.376 197.17C114.62 177.364 47.4933 215.233 56.3801 172.691C65.1554 147.869 104.439 166.155 101.671 143.377C101.234 139.761 44.8367 72.3454 95.6721 82.5492C108.355 85.2289 124.004 101.651 124.218 76.262C124.458 47.4028 142.497 58.2508 146.053 72.1994Z" stroke="white" stroke-width="1.0322" stroke-miterlimit="10"/>
<path d="M143.063 73.9343C164.547 121.904 232.29 37.5941 240.603 88.278C245.136 115.883 196.04 114.981 229.291 145.447C243.928 158.854 259.885 186.975 221.141 188.272C199.768 188.984 187.891 180.138 179.707 204.78C172.834 225.462 160.93 229.705 140.26 233.407C120.747 233.871 125.855 211.299 121.99 197.711C116.514 178.471 50.9811 219.312 59.1481 176.273C67.2036 151.88 106.059 167.881 102.408 145.636C101.834 142.105 43.654 78.392 94.0353 86.1823C106.547 88.2694 122.632 103.764 121.801 78.8387C120.85 50.4862 139.086 60.4495 143.063 73.9343Z" stroke="white" stroke-width="1.0322" stroke-miterlimit="10"/>
<path d="M140.072 75.6695C163.219 122.205 226.24 36.1428 236.567 85.6156C242.188 112.559 193.889 113.77 227.868 142.303C242.822 154.86 259.705 181.821 221.672 184.742C200.685 186.356 188.645 178.162 181.635 202.736C175.756 223.358 164.65 227.721 144.065 232.548C124.895 234.137 128.965 211.428 124.595 198.226C118.399 179.545 54.4519 223.367 61.9161 179.82C69.2518 155.857 107.67 169.573 103.145 147.86C102.425 144.416 42.4629 84.396 92.3899 89.7727C104.722 91.2758 121.244 105.834 119.376 81.3726C117.242 53.5613 135.684 62.6571 140.072 75.6695Z" stroke="white" stroke-width="1.0322" stroke-miterlimit="10"/>
<path d="M137.081 77.4045C161.89 122.506 220.198 34.6998 232.53 82.9616C239.24 109.244 191.738 112.551 226.446 139.151C241.726 150.858 259.525 176.668 222.204 181.212C201.611 183.72 189.399 176.178 183.572 200.683C178.687 221.245 168.386 225.737 147.887 231.689C129.051 234.412 132.093 211.557 127.209 198.75C120.293 180.628 57.9398 227.421 64.6841 183.385C71.2999 159.851 109.289 171.291 103.882 150.102C103.025 146.744 41.2803 90.4341 90.7531 93.3801C102.905 94.2905 119.864 107.93 116.951 83.9236C113.634 56.6362 132.282 64.8645 137.081 77.4045Z" stroke="white" stroke-width="1.0322" stroke-miterlimit="10"/>
<path d="M134.09 79.1393C160.562 122.806 214.157 33.2567 228.485 80.2988C236.292 105.92 189.587 111.331 225.015 136.007C240.603 146.864 259.328 171.514 222.718 177.69C202.519 181.091 190.127 174.211 185.491 198.647C181.592 219.149 172.097 223.761 151.684 230.847C133.19 234.695 135.204 211.702 129.805 199.3C122.161 181.735 61.4105 231.509 67.4435 186.966C73.3395 163.87 110.892 173.017 104.602 152.369C103.608 149.097 40.0805 96.4806 89.0992 97.0131C101.08 97.3395 118.468 110.051 114.517 86.5001C110.026 59.7109 128.88 67.0631 134.09 79.1393Z" stroke="white" stroke-width="1.0322" stroke-miterlimit="10"/>
<path d="M131.099 80.8744C159.234 123.115 208.107 31.8138 224.449 77.6449C233.344 102.605 187.437 110.12 223.592 132.855C239.506 142.861 259.139 166.352 223.249 174.151C203.445 178.454 190.882 172.227 187.428 196.586C184.531 217.036 175.825 221.769 155.506 229.98C137.355 234.953 138.332 211.823 132.428 199.807C124.064 182.809 64.9155 235.563 70.2287 190.513C75.3962 167.847 112.529 174.71 105.356 154.594C104.216 151.408 38.915 102.493 87.4795 100.603C99.28 100.337 117.114 112.121 112.117 89.034C106.419 62.7945 125.469 69.2706 131.099 80.8744Z" stroke="white" stroke-width="1.0322" stroke-miterlimit="10"/>
<path d="M128.1 82.6094C157.897 123.416 202.056 30.3795 220.404 74.9909C230.396 99.2893 185.277 108.918 222.161 129.72C238.392 138.876 258.951 161.216 223.772 170.638C204.362 175.843 191.627 170.269 189.348 194.559C187.436 214.949 179.544 219.802 159.311 229.147C141.503 235.254 141.443 211.977 135.024 200.365C125.94 183.926 68.3862 239.651 72.9796 194.104C77.4272 171.867 114.131 176.445 106.076 156.87C104.799 153.761 37.7152 108.557 85.8255 104.237C97.4546 103.386 115.717 114.243 109.684 91.6107C102.811 65.8694 122.067 71.478 128.1 82.6094Z" stroke="white" stroke-width="1.0322" stroke-miterlimit="10"/>
<path d="M125.109 84.3443C156.56 123.716 196.006 28.9279 216.359 72.3283C227.44 95.9653 183.117 107.689 220.721 126.559C237.269 134.865 258.754 156.046 224.286 167.1C205.27 173.198 192.356 168.276 191.267 192.506C190.35 212.836 183.254 217.818 163.107 228.279C145.642 235.511 144.554 212.106 137.621 200.88C127.817 184.999 71.8569 243.714 75.7304 197.659C79.4583 175.852 115.725 178.154 106.796 159.103C105.382 156.08 36.5155 114.578 84.163 107.844C95.6122 106.401 114.311 116.338 107.233 94.1616C99.2029 68.9528 118.665 73.6853 125.109 84.3443Z" stroke="white" stroke-width="1.0322" stroke-miterlimit="10"/>
<path d="M122.118 86.0793C155.24 124.026 189.965 27.4849 212.323 69.6742C224.5 92.6499 180.975 106.478 219.307 123.424C236.181 130.88 258.574 150.901 224.818 163.578C206.196 170.578 193.11 166.318 193.204 190.462C193.281 210.732 186.982 215.834 166.929 227.429C149.807 235.795 147.682 212.235 140.243 201.413C129.72 186.09 75.3534 247.785 78.5156 201.232C81.5236 179.854 117.362 179.872 107.55 161.354C105.99 158.416 35.35 120.616 82.5434 111.46C93.8125 109.433 112.949 118.443 104.833 96.7211C95.595 72.0276 115.262 75.8841 122.118 86.0793Z" stroke="white" stroke-width="1.0322" stroke-miterlimit="10"/>
<path d="M119.127 87.8142C153.903 124.326 183.923 26.0418 208.278 67.0115C221.544 89.3259 178.815 105.259 217.876 120.264C235.067 126.869 258.385 145.739 225.34 160.039C207.113 167.933 193.855 164.325 195.124 188.409C196.195 208.619 190.693 213.85 170.734 226.57C153.955 236.061 150.792 212.364 142.848 201.937C131.596 187.172 78.8327 251.848 81.2836 204.788C83.5717 183.848 118.982 181.572 108.287 163.595C106.59 160.744 34.1674 126.637 80.9066 115.067C92.0043 112.448 111.569 120.53 102.408 99.2805C91.9872 75.1024 111.852 78.0914 119.127 87.8142Z" stroke="white" stroke-width="1.0322" stroke-miterlimit="10"/>
<path d="M116.137 89.5493C152.584 124.618 177.873 24.5991 204.242 64.3577C218.596 86.0107 176.664 104.048 216.445 117.129C233.953 122.883 258.188 140.594 225.863 156.527C208.029 165.322 194.592 162.367 197.052 186.374C199.108 206.523 194.412 211.883 174.539 225.728C158.102 236.345 153.912 212.51 145.454 202.478C133.482 188.272 82.312 255.919 84.0431 208.37C85.6027 187.859 120.584 183.299 109.015 165.854C107.181 163.089 32.9676 132.683 79.2612 118.683C90.179 115.471 110.189 122.634 99.9827 101.832C88.3793 78.1861 108.45 80.299 116.137 89.5493Z" stroke="white" stroke-width="1.0322" stroke-miterlimit="10"/>
<path d="M113.146 91.2842C151.247 124.927 171.831 23.1559 200.197 61.6949C215.648 82.6865 174.505 102.828 215.014 113.968C232.839 118.872 257.999 135.432 226.386 152.988C208.938 162.676 195.338 160.374 198.971 184.321C202.022 204.41 198.131 209.89 178.344 224.861C162.25 236.611 157.023 212.63 148.05 202.993C135.358 189.345 85.7827 259.973 86.8025 211.926C87.6423 191.845 122.195 185.008 109.735 168.096C107.764 165.408 31.7764 138.713 77.6072 122.299C88.345 118.503 108.792 124.73 97.5489 104.391C84.7715 81.2693 105.047 82.5062 113.146 91.2842Z" stroke="white" stroke-width="1.0322" stroke-miterlimit="10"/>
<path d="M110.155 93.0193C149.918 125.228 165.789 21.7131 196.16 59.0411C212.7 79.3713 172.354 101.617 213.591 110.824C231.733 114.878 257.819 130.287 226.909 149.458C209.855 160.04 196.083 158.408 200.9 182.277C204.944 202.315 201.851 207.915 182.149 224.011C166.398 236.886 160.133 212.768 150.655 203.526C137.235 190.445 89.262 264.053 89.5619 215.49C89.6819 195.839 123.806 186.717 110.472 170.338C108.355 167.735 30.5938 144.742 75.9618 125.907C86.5283 121.518 107.404 126.826 95.1237 106.942C81.1636 84.3444 101.637 84.7137 110.155 93.0193Z" stroke="white" stroke-width="1.0322" stroke-miterlimit="10"/>
</g>
<defs>
<clipPath id="clip0_135_50">
<rect width="326" height="269" fill="white"/>
</clipPath>
</defs>
</svg>
