<svg width="414" height="342" viewBox="0 0 414 342" fill="none" xmlns="http://www.w3.org/2000/svg">
<g clip-path="url(#clip0_248_866)">
<path d="M257.666 49.8821C242.745 147.298 448.543 84.4981 408.178 179.807C386.194 231.72 303.636 177.088 327.448 264.938C337.928 303.595 334.826 368.754 267.526 329.06C230.393 307.155 219.717 279.243 179.276 312.353C145.343 340.144 109.886 342.382 81.3833 318.435C47.9072 290.316 80.6541 265.2 88.6966 237.868C100.069 199.179 -23.692 175.352 4.85405 133.376C33.4001 91.3995 93.681 169.826 111.399 127.992C114.206 121.353 85.5623 -53.7914 161.101 17.6684C181.485 35.2931 190.834 78.5468 216.234 35.1948C245.096 -14.0976 263.107 20.7806 257.666 49.8821Z" stroke="#B18876" stroke-width="1.0322" stroke-miterlimit="10"/>
<path d="M253.868 52.0769C241.058 147.681 440.87 82.6526 403.052 176.422C382.45 227.494 300.904 175.537 325.63 260.931C336.513 298.517 334.587 362.202 268.19 324.572C231.558 303.802 220.653 276.732 181.724 309.754C149.054 337.468 114.609 339.871 86.2151 317.354C53.1743 290.666 84.6044 265.375 92.0049 238.545C102.463 200.566 -19.2738 180.528 8.36905 137.918C36.001 96.4881 95.7268 172.01 112.334 130.853C114.968 124.323 84.0603 -46.1147 159.011 22.2656C179.167 39.1369 189.07 81.2112 213.154 38.4489C240.525 -10.1774 258.776 23.576 253.868 52.0769Z" stroke="#B18876" stroke-width="1.0322" stroke-miterlimit="10"/>
<path d="M250.07 54.2828C239.372 148.063 433.187 80.8181 397.915 173.047C378.707 223.279 298.172 173.997 323.824 256.934C335.109 293.428 334.347 355.65 268.865 320.084C232.733 300.461 221.611 274.22 184.173 307.144C152.754 334.793 119.332 337.348 91.0581 316.262C58.4527 291.015 88.5659 265.539 95.3134 239.211C104.858 201.941 -14.8552 185.693 11.8735 142.439C38.5912 101.566 97.7729 174.172 113.249 133.703C115.708 127.282 82.5368 -38.4489 156.922 26.852C176.849 42.9807 187.307 83.8757 210.064 41.6921C235.933 -6.26802 254.455 26.3824 250.07 54.2828Z" stroke="#B18876" stroke-width="1.0322" stroke-miterlimit="10"/>
<path d="M246.271 56.4995C237.674 148.456 425.514 78.9945 392.789 169.673C374.963 219.064 295.441 172.458 322.006 252.937C333.705 288.362 334.108 349.098 269.528 315.607C233.897 297.119 222.557 271.709 186.622 304.556C156.465 332.118 124.066 334.837 95.89 315.181C63.7199 291.365 92.5272 265.714 98.6216 239.888C107.252 203.328 -10.4369 190.869 15.3885 146.982C41.1921 106.655 99.8188 176.367 114.184 136.564C116.47 130.252 81.0347 -30.7722 154.832 31.4602C174.541 46.8354 185.555 86.551 206.984 44.9572C231.362 -2.34777 250.135 29.1889 246.271 56.4995Z" stroke="#B18876" stroke-width="1.0322" stroke-miterlimit="10"/>
<path d="M242.473 58.7054C235.987 148.849 417.842 77.149 387.663 166.299C371.23 214.849 292.709 170.918 320.2 248.941C332.301 283.284 333.869 342.557 270.192 311.13C235.051 293.789 223.493 269.219 189.07 301.968C160.176 329.464 128.789 332.325 100.733 314.111C68.9982 291.736 96.4886 265.899 101.941 240.576C109.646 204.726 -6.00742 196.056 18.9038 151.535C43.7932 111.754 101.876 178.562 115.12 139.436C117.221 133.234 79.5329 -23.0846 152.754 36.0684C172.234 50.7011 183.803 89.2374 203.915 48.2223C226.78 1.56157 245.803 31.9953 242.473 58.7054Z" stroke="#B18876" stroke-width="1.0322" stroke-miterlimit="10"/>
<path d="M238.664 60.9111C234.289 149.22 410.147 75.3145 382.515 162.914C367.464 210.623 289.956 169.357 318.371 244.933C330.876 278.195 333.618 335.994 270.845 306.63C236.204 290.425 224.429 266.686 191.508 299.347C163.876 326.767 133.502 329.792 105.554 313.008C74.2546 292.063 100.439 266.052 105.238 241.231C112.029 206.102 -1.59988 201.21 22.408 156.045C46.3832 116.81 103.922 180.713 116.045 142.264C117.972 136.16 78.0201 -15.4408 150.653 40.6329C169.916 54.5121 182.04 91.8799 200.824 51.4436C222.198 5.47084 241.483 34.8017 238.664 60.9111Z" stroke="#B18876" stroke-width="1.0322" stroke-miterlimit="10"/>
<path d="M234.866 63.117C232.602 149.613 402.475 73.4909 377.389 159.54C363.731 206.408 287.235 167.817 316.564 240.936C329.472 273.117 333.379 329.442 271.52 302.153C237.38 287.084 225.376 264.174 193.957 296.748C167.587 324.091 138.236 327.28 110.397 311.927C79.5219 292.413 104.4 266.227 108.547 241.908C114.424 207.478 2.81853 206.386 25.9231 160.588C48.9842 121.91 105.968 182.897 116.981 145.136C118.722 139.141 76.5073 -7.76402 148.585 45.2411C167.62 58.3778 180.298 94.5553 197.755 54.7087C217.616 9.39113 237.162 37.6081 234.866 63.117Z" stroke="#B18876" stroke-width="1.0322" stroke-miterlimit="10"/>
<path d="M231.068 65.3228C230.916 149.996 394.792 71.6454 372.253 156.154C359.977 202.182 284.492 166.277 314.747 236.929C328.068 268.029 333.139 322.89 272.184 297.665C238.545 283.742 226.334 261.662 196.406 294.16C171.288 321.427 142.959 324.768 115.24 310.846C84.8114 292.773 108.362 266.402 111.866 242.585C116.829 208.876 7.24827 211.562 29.4387 165.12C51.5747 126.987 108.025 185.081 117.917 147.986C119.485 142.101 75.0058 -0.0982848 146.496 49.8165C165.302 62.1997 178.536 97.2088 194.675 57.9518C213.024 13.3004 232.842 40.4036 231.068 65.3228Z" stroke="#B18876" stroke-width="1.0322" stroke-miterlimit="10"/>
<path d="M227.27 67.5286C229.229 150.378 387.119 69.8108 367.127 152.78C356.233 197.967 281.761 164.737 312.941 232.932C326.664 262.951 332.911 316.349 272.848 293.177C239.709 280.401 227.27 259.151 198.854 291.55C174.999 318.741 147.682 322.246 120.083 309.754C90.0787 293.112 112.324 266.565 115.186 243.251C119.234 210.252 11.6776 216.727 32.9648 169.651C54.1866 132.065 110.082 187.254 118.864 150.836C120.257 145.06 73.5148 7.56747 144.428 54.4029C163.017 66.0435 176.794 99.8733 191.606 61.1841C208.453 17.2206 228.521 43.21 227.27 67.5286Z" stroke="#B18876" stroke-width="1.0322" stroke-miterlimit="10"/>
<path d="M223.471 69.7344C227.542 150.76 379.446 67.9763 362.001 149.395C352.5 193.741 279.04 163.187 311.134 228.935C325.26 257.873 332.671 309.797 273.522 288.7C240.884 277.059 228.227 256.65 201.303 288.951C178.71 316.065 152.405 319.723 124.915 308.673C95.3567 293.472 116.285 266.751 118.494 243.928C121.628 211.649 16.0958 221.903 36.4797 174.194C56.7874 137.154 112.138 189.438 119.8 153.708C121.019 148.041 72.0127 15.2551 142.349 59.0111C160.709 69.9091 175.053 102.56 188.537 64.4601C203.871 21.13 224.19 46.0164 223.471 69.7344Z" stroke="#B18876" stroke-width="1.0322" stroke-miterlimit="10"/>
<path d="M219.673 71.9402C225.855 151.142 371.774 66.1418 356.864 146.021C348.746 189.526 276.298 161.636 309.317 224.928C323.845 252.774 332.432 303.234 274.186 284.201C242.049 273.707 229.163 254.128 203.752 286.341C182.421 313.379 157.14 317.201 129.758 307.581C100.624 293.811 120.246 266.915 121.814 244.595C124.034 213.025 20.5255 227.068 39.9952 178.715C59.3887 142.221 114.195 191.6 120.736 156.548C121.77 150.978 70.5111 22.9099 140.271 63.5865C158.402 73.7311 173.29 105.202 185.468 67.6815C199.29 25.0393 219.869 48.8119 219.673 71.9402Z" stroke="#B18876" stroke-width="1.0322" stroke-miterlimit="10"/>
<path d="M215.875 74.1351C224.168 151.524 364.091 64.2963 351.738 142.636C345.013 185.3 273.566 160.086 307.51 220.92C322.441 247.696 332.193 296.682 274.85 279.724C243.213 270.366 230.11 251.616 206.2 283.753C186.132 310.725 161.863 314.689 134.59 306.51C105.892 294.171 124.197 267.1 125.111 245.293C126.406 214.423 24.933 232.266 43.4885 183.279C61.9678 147.342 116.22 193.817 121.65 159.441C122.51 153.981 68.9873 30.6084 138.16 68.2165C156.073 77.6076 171.516 107.899 182.355 70.9683C194.708 28.9595 215.549 51.6183 215.875 74.1351Z" stroke="#B18876" stroke-width="1.0322" stroke-miterlimit="10"/>
<path d="M212.077 76.3409C222.481 151.907 356.418 62.4617 346.602 139.25C341.258 181.074 270.823 158.546 305.693 216.913C321.038 242.607 331.953 290.12 275.514 275.225C244.378 267.013 231.057 249.094 208.638 281.143C189.832 308.039 166.575 312.167 139.422 305.418C111.159 294.52 128.158 267.264 128.419 245.949C128.8 215.788 29.3515 237.42 47.0038 187.789C64.558 152.387 118.277 195.968 122.586 162.27C123.272 156.919 67.4856 38.2633 136.081 72.792C153.766 81.4405 169.764 110.553 179.287 74.2006C190.126 32.8688 211.228 54.4247 212.077 76.3409Z" stroke="#B18876" stroke-width="1.0322" stroke-miterlimit="10"/>
<path d="M208.268 78.5467C220.784 152.289 348.735 60.6272 341.465 135.876C337.515 176.859 268.092 156.995 303.864 212.916C319.612 237.529 331.703 283.568 276.167 270.748C245.531 263.672 231.982 246.593 211.076 278.545C193.533 305.364 171.288 309.655 144.254 304.326C116.427 294.859 132.109 267.428 131.728 246.615C131.195 217.175 33.7702 242.585 50.5082 192.321C67.1483 157.476 120.312 198.141 123.5 165.12C124.012 159.889 65.9621 45.929 133.981 77.3783C151.437 85.2734 167.99 113.217 176.196 77.4438C185.544 36.7891 206.897 57.2311 208.268 78.5467Z" stroke="#B18876" stroke-width="1.0322" stroke-miterlimit="10"/>
<path d="M204.481 80.7635C219.097 152.682 341.062 58.8036 336.35 132.513C333.782 172.654 265.371 155.466 302.069 208.93C318.219 232.452 331.474 277.038 276.853 266.271C246.707 260.33 232.951 244.092 213.546 275.946C197.254 302.688 176.044 307.144 149.108 303.245C121.716 295.219 136.081 267.603 135.058 247.292C133.6 218.562 38.2104 247.761 54.0452 196.864C69.7711 162.564 122.39 200.336 124.458 167.981C124.785 162.848 64.482 53.5948 131.924 81.9756C149.163 89.1281 166.271 115.882 173.149 80.698C180.963 40.6984 202.576 60.0266 204.481 80.7635Z" stroke="#B18876" stroke-width="1.0322" stroke-miterlimit="10"/>
<path d="M200.672 82.9693C217.41 153.075 333.379 56.9691 331.202 129.128C330.016 168.428 262.618 153.916 300.24 204.923C316.793 227.374 331.224 270.475 277.506 261.782C247.86 256.989 233.887 241.581 215.973 273.347C200.944 300.024 180.745 304.621 153.929 302.164C126.972 295.569 140.021 267.767 138.356 247.969C135.983 219.948 42.6179 252.937 57.5385 201.396C72.3503 167.642 124.425 202.509 125.372 170.842C125.525 165.819 62.9583 61.2715 129.823 86.5729C146.833 92.9719 164.486 118.557 170.047 83.9521C176.381 44.6078 198.256 62.8331 200.672 82.9693Z" stroke="#B18876" stroke-width="1.0322" stroke-miterlimit="10"/>
<path d="M196.873 85.1751C215.722 153.457 325.695 55.1345 326.076 125.753C326.283 164.213 259.897 152.376 298.433 200.926C315.4 222.296 330.995 263.923 278.169 257.305C249.024 253.647 234.833 239.069 218.421 270.759C204.654 297.349 185.468 302.11 158.761 301.094C132.239 295.929 143.982 267.952 141.664 248.668C138.377 221.357 47.0361 258.135 61.0534 205.96C74.951 172.753 126.471 204.715 126.308 173.714C126.286 168.8 61.4452 68.9591 127.733 91.1811C144.526 96.8376 162.733 121.233 166.967 87.2281C171.799 48.528 193.924 65.6394 196.873 85.1751Z" stroke="#B18876" stroke-width="1.0322" stroke-miterlimit="10"/>
<path d="M193.075 87.3809C214.025 153.828 318.023 53.2999 320.939 122.368C322.528 159.987 257.154 150.825 296.616 196.929C313.985 217.218 330.745 257.382 278.833 252.828C250.189 250.317 235.769 236.568 220.87 268.16C208.366 294.673 190.202 299.598 163.604 300.013C137.517 296.289 147.943 268.127 144.972 249.345C140.771 222.755 51.4656 263.311 64.5687 210.503C77.5521 177.852 128.528 206.899 127.244 176.586C127.037 171.781 59.9434 76.6467 125.655 95.7892C142.219 100.692 160.981 123.919 163.898 90.4822C167.217 52.4373 189.603 68.4458 193.075 87.3809Z" stroke="#B18876" stroke-width="1.0322" stroke-miterlimit="10"/>
<path d="M189.277 89.5868C212.338 154.222 310.35 51.4655 315.813 118.994C318.795 155.772 254.422 149.275 294.809 192.922C312.581 212.13 330.516 250.819 279.508 248.329C251.364 246.953 236.727 234.035 223.33 265.55C212.077 291.998 194.925 297.065 168.447 298.91C142.796 296.628 151.916 268.291 148.291 250C143.176 224.12 55.884 268.466 68.0838 215.024C80.1422 182.908 130.574 209.061 128.18 179.425C127.799 174.718 58.4415 84.3016 123.576 100.365C139.912 104.514 159.24 126.572 160.829 93.7145C162.635 56.3466 185.283 71.2523 189.277 89.5868Z" stroke="#B18876" stroke-width="1.0322" stroke-miterlimit="10"/>
<path d="M185.479 91.7926C210.651 154.604 302.667 49.6309 310.677 115.609C315.041 151.546 251.68 147.735 292.992 188.925C311.166 207.052 330.266 244.278 280.172 243.852C252.518 243.612 237.674 231.534 225.768 262.951C215.777 289.322 199.648 294.553 173.279 297.829C148.063 296.977 155.866 268.465 151.6 250.677C145.56 225.496 60.3134 273.642 71.5991 219.555C82.7433 187.997 132.631 211.245 129.116 182.286C128.561 177.688 56.9397 91.9782 121.498 104.951C137.604 108.358 157.477 129.237 157.749 96.9577C158.054 60.2669 180.962 74.0587 185.479 91.7926Z" stroke="#B18876" stroke-width="1.0322" stroke-miterlimit="10"/>
<path d="M181.681 93.9984C208.964 154.986 294.994 47.7964 305.551 112.235C311.308 147.331 248.959 146.185 291.185 184.917C309.774 201.963 330.038 237.715 280.836 239.364C253.694 240.27 238.61 229.023 228.216 260.352C219.488 286.647 204.372 292.042 178.122 296.748C153.341 297.338 159.828 268.64 154.919 251.365C147.965 226.904 64.743 278.828 75.1145 224.109C85.3445 193.096 134.688 213.44 130.052 185.158C129.323 180.67 55.438 99.6658 119.419 109.57C135.308 112.224 155.736 131.923 154.68 100.234C153.472 64.1871 176.631 76.8542 181.681 93.9984Z" stroke="#B18876" stroke-width="1.0322" stroke-miterlimit="10"/>
<path d="M177.883 96.2042C207.278 155.368 287.311 45.9509 300.425 108.849C307.564 143.105 246.228 144.645 289.379 180.921C308.37 196.886 329.809 231.163 281.51 234.876C254.858 236.929 239.567 226.511 230.665 257.753C223.199 283.972 209.095 289.519 182.954 295.656C158.609 297.676 163.778 268.804 158.228 252.02C150.359 228.269 69.1506 283.983 78.6297 228.619C87.9455 198.152 136.734 215.591 130.988 187.986C130.074 183.607 53.9253 107.299 117.33 114.135C132.99 116.046 153.973 134.555 151.6 103.455C148.89 68.0964 172.31 79.6606 177.883 96.2042Z" stroke="#B18876" stroke-width="1.0322" stroke-miterlimit="10"/>
<path d="M174.084 98.4101C205.591 155.75 279.638 44.1164 295.299 105.475C303.82 138.89 243.496 143.094 287.572 176.913C306.977 191.797 329.581 224.611 282.185 230.388C256.033 233.576 240.525 223.989 233.125 255.143C226.921 281.285 213.84 286.997 187.808 294.564C163.887 298.026 167.75 268.968 161.547 252.686C152.765 229.645 73.5798 289.137 82.1448 233.151C90.5464 203.23 138.791 217.775 131.924 190.836C130.835 186.566 52.4233 114.976 115.251 118.721C130.683 119.879 152.22 137.219 148.52 106.698C144.308 72.0058 167.99 82.467 174.084 98.4101Z" stroke="#B18876" stroke-width="1.0322" stroke-miterlimit="10"/>
<path d="M170.286 100.616C203.904 156.133 271.966 42.2818 290.162 102.09C300.077 134.664 240.765 141.544 285.755 172.916C305.551 186.719 329.33 218.059 282.838 225.911C257.187 230.235 241.45 221.488 235.563 252.555C230.611 278.621 218.552 284.485 192.629 293.494C169.144 298.386 171.701 269.153 164.845 253.385C155.137 231.054 77.9877 294.335 85.6493 237.704C93.1368 208.341 140.826 219.97 132.838 193.719C131.576 189.558 50.8999 122.663 113.151 123.34C128.365 123.755 150.447 139.917 145.43 109.974C139.727 75.915 163.669 85.2625 170.286 100.616Z" stroke="#B18876" stroke-width="1.0322" stroke-miterlimit="10"/>
<path d="M166.488 102.822C202.217 156.526 264.282 40.4473 285.036 98.7158C296.333 130.449 238.033 140.004 283.948 168.909C304.158 181.63 329.091 211.496 283.513 221.412C258.362 226.882 242.408 218.966 238.022 249.934C234.343 275.935 223.286 281.952 197.483 292.391C174.432 298.714 175.673 269.306 168.175 254.029C157.553 232.419 82.4385 299.489 89.1859 242.214C95.7484 213.396 142.904 222.121 133.795 196.547C132.348 192.496 49.4195 130.307 111.093 127.905C126.079 127.566 148.727 142.548 142.382 113.196C135.145 79.8353 159.338 88.0689 166.488 102.822Z" stroke="#B18876" stroke-width="1.0322" stroke-miterlimit="10"/>
<path d="M162.679 105.028C200.519 156.908 256.599 38.6236 279.9 95.3416C292.589 126.234 235.29 138.475 282.131 164.923C302.743 176.564 328.851 204.966 284.177 216.945C259.527 223.563 243.354 216.476 240.46 247.357C238.033 273.281 228.009 279.451 202.315 291.332C179.7 299.096 179.624 269.503 171.472 254.739C159.936 233.839 86.8461 304.687 92.6794 246.779C98.3277 218.507 144.94 224.327 134.71 199.441C133.088 195.488 47.8959 138.016 108.993 132.524C123.761 131.443 146.953 145.245 139.291 116.472C130.563 83.7446 155.017 90.8753 162.679 105.028Z" stroke="#B18876" stroke-width="1.0322" stroke-miterlimit="10"/>
<path d="M158.881 107.233C198.821 157.29 248.916 36.7782 274.763 91.9564C288.835 122.008 232.548 136.914 280.302 160.905C301.317 171.464 328.601 198.393 284.83 212.446C260.68 220.2 244.28 213.942 242.897 244.747C241.733 270.595 232.722 276.928 207.136 290.229C184.956 299.423 183.574 269.667 174.77 255.394C162.32 235.203 91.2538 309.852 96.1729 251.299C100.907 223.574 146.964 226.5 135.624 202.28C133.828 198.436 46.3723 145.671 106.882 137.11C121.421 135.276 145.168 147.91 136.179 119.715C125.981 87.6649 150.697 93.6817 158.881 107.233Z" stroke="#B18876" stroke-width="1.0322" stroke-miterlimit="10"/>
<path d="M155.082 109.439C197.145 157.683 241.243 34.9436 269.637 88.5821C285.102 117.793 229.827 135.374 278.507 156.919C299.935 166.397 328.372 191.851 285.504 207.969C261.856 216.869 245.237 211.453 245.357 242.148C245.455 267.919 237.456 274.406 211.99 289.148C190.245 299.784 187.546 269.83 178.1 256.071C164.736 236.59 95.694 315.028 99.7098 255.842C103.53 228.662 149.042 228.684 136.581 205.141C134.601 201.406 44.8921 153.348 104.825 141.707C119.136 139.13 143.438 150.585 133.131 122.969C121.4 91.5742 146.376 96.4772 155.082 109.439Z" stroke="#B18876" stroke-width="1.0322" stroke-miterlimit="10"/>
<path d="M151.285 111.645C195.448 158.065 233.571 33.1091 264.5 85.197C281.347 113.567 227.085 133.823 276.689 152.9C298.521 161.298 328.133 185.289 286.169 203.47C263.02 213.506 246.184 208.919 247.795 239.539C249.155 265.233 242.169 271.883 216.822 288.056C195.513 300.122 191.497 269.994 181.409 256.738C167.119 237.966 100.113 320.193 103.225 260.363C106.131 233.74 151.1 230.846 137.518 207.991C135.363 204.366 43.3907 161.003 102.747 146.294C116.84 142.963 141.686 153.239 130.052 126.223C116.818 95.4835 142.045 99.2836 151.285 111.645Z" stroke="#B18876" stroke-width="1.0322" stroke-miterlimit="10"/>
<path d="M147.487 113.851C193.772 158.437 225.888 31.2746 259.375 81.8228C277.604 109.352 224.353 132.284 274.872 148.915C297.106 156.231 327.883 178.748 286.832 199.004C264.185 210.186 247.12 206.43 250.244 236.951C252.856 262.569 246.892 269.383 221.654 286.986C200.781 300.483 195.459 270.18 184.717 257.425C169.514 239.364 104.531 325.369 106.73 264.917C108.71 238.84 153.135 233.041 138.443 210.863C136.114 207.347 41.8671 168.69 100.657 150.891C114.522 146.807 139.934 155.914 126.972 129.466C112.237 99.4038 137.725 102.09 147.487 113.851Z" stroke="#B18876" stroke-width="1.0322" stroke-miterlimit="10"/>
<path d="M143.688 116.057C192.074 158.83 218.215 29.44 254.238 78.4375C273.86 105.126 221.61 130.733 273.054 144.896C295.691 151.131 327.644 172.185 287.496 194.505C265.338 206.823 248.067 203.896 252.681 234.341C256.556 259.882 251.615 266.849 226.486 285.883C206.048 300.821 199.409 270.333 188.015 258.081C171.897 240.729 108.939 330.523 110.234 269.437C111.3 243.907 155.181 235.214 139.357 213.713C136.854 210.295 40.3542 176.356 98.5565 155.488C112.193 150.662 138.16 158.579 123.881 132.72C107.655 103.324 133.404 104.896 143.688 116.057Z" stroke="#B18876" stroke-width="1.0322" stroke-miterlimit="10"/>
<path d="M139.89 118.262C190.387 159.212 210.542 27.6055 249.112 75.0633C270.116 100.911 218.879 129.193 271.248 140.899C294.287 146.053 327.415 165.644 288.16 190.017C266.503 203.47 249.014 201.395 255.13 231.742C260.267 257.218 256.338 264.338 231.318 284.802C211.315 301.17 203.359 270.507 191.323 258.758C174.28 242.127 113.357 335.71 113.738 273.969C113.89 248.984 157.226 237.387 140.293 216.563C137.604 213.254 38.8521 184.022 96.4667 160.075C109.885 154.495 136.396 161.243 120.801 135.964C103.073 107.233 129.072 107.703 139.89 118.262Z" stroke="#B18876" stroke-width="1.0322" stroke-miterlimit="10"/>
</g>
<defs>
<clipPath id="clip0_248_866">
<rect width="414" height="342" fill="white"/>
</clipPath>
</defs>
</svg>
