<svg width="132" height="34" viewBox="0 0 132 34" fill="none" xmlns="http://www.w3.org/2000/svg">
<path d="M1.80017 12.8879C1.96817 12.8879 2.04017 12.9719 2.01617 13.1399C1.99217 13.3079 1.92017 13.3919 1.80017 13.3919C1.24817 13.3919 0.816168 13.2359 0.504168 12.9239C0.168168 12.6119 0.000167944 12.2159 0.000167944 11.7359C0.000167944 11.2799 0.228168 10.7399 0.684168 10.1159C1.14017 9.46789 1.95617 8.80789 3.13217 8.13589C4.30817 7.43989 5.90417 6.76789 7.92017 6.11989C9.93617 5.44789 12.4922 4.85989 15.5882 4.35589C18.7082 3.82789 22.4282 3.40789 26.7482 3.09589C31.0922 2.75989 36.1682 2.59189 41.9762 2.59189C42.1682 2.59189 42.2522 2.67589 42.2282 2.84389C42.2042 3.01189 42.1202 3.09589 41.9762 3.09589C36.1442 3.09589 31.0682 3.25189 26.7482 3.56389C22.4282 3.87589 18.7322 4.29589 15.6602 4.82389C12.5882 5.32789 10.0682 5.90389 8.10017 6.55189C6.13217 7.17589 4.58417 7.81189 3.45617 8.45989C2.35217 9.08389 1.58417 9.69589 1.15217 10.2959C0.720168 10.8719 0.504168 11.3519 0.504168 11.7359C0.504168 12.0719 0.624168 12.3479 0.864168 12.5639C1.08017 12.7799 1.39217 12.8879 1.80017 12.8879ZM17.4602 6.40789C17.5322 6.28789 17.6402 6.26389 17.7842 6.33589C17.9282 6.40789 17.9642 6.50389 17.8922 6.62389C17.5322 7.29589 17.1362 8.15989 16.7042 9.21589C16.2722 10.2719 15.8402 11.4479 15.4082 12.7439C15.0002 14.0159 14.6162 15.3599 14.2562 16.7759C13.9202 18.1919 13.6562 19.6079 13.4642 21.0239C13.4642 21.0959 13.4282 21.1439 13.3562 21.1679C13.3082 21.2159 13.2482 21.2279 13.1762 21.2039C13.1042 21.2039 13.0442 21.1799 12.9962 21.1319C12.9482 21.0839 12.9362 21.0239 12.9602 20.9519C13.1522 19.5359 13.4282 18.1199 13.7882 16.7039C14.1482 15.2639 14.5322 13.8959 14.9402 12.5999C15.3722 11.3039 15.8042 10.1279 16.2362 9.07189C16.6922 7.99189 17.1002 7.10389 17.4602 6.40789ZM25.9129 17.7479C25.8649 17.8679 25.7689 17.9279 25.6249 17.9279C25.4809 17.9039 25.4089 17.8199 25.4089 17.6759C25.4329 17.5799 25.4209 17.4719 25.3729 17.3519C25.3249 17.2319 25.2169 17.1719 25.0489 17.1719C24.8569 17.1719 24.6529 17.2319 24.4369 17.3519C24.2209 17.4479 24.0169 17.5799 23.8249 17.7479C23.6329 17.9159 23.4649 18.0959 23.3209 18.2879C23.2009 18.4559 23.1409 18.6239 23.1409 18.7919C23.1409 18.8879 23.1889 18.9359 23.2849 18.9359C23.3809 18.9119 23.5009 18.8639 23.6449 18.7919C23.8129 18.6959 23.9929 18.5879 24.1849 18.4679C24.3769 18.3239 24.5689 18.1679 24.7609 17.9999C24.9049 17.8799 25.0249 17.8319 25.1209 17.8559C25.2169 17.8799 25.3129 17.9399 25.4089 18.0359C25.7449 18.3719 26.1169 18.5999 26.5249 18.7199C26.9329 18.8399 27.3049 18.8999 27.6409 18.8999C28.2409 18.8999 28.8889 18.7679 29.5849 18.5039C30.3049 18.2399 30.9649 17.9279 31.5649 17.5679C31.7569 17.4959 31.8769 17.5319 31.9249 17.6759C31.9969 17.7959 31.9729 17.9039 31.8529 17.9999C31.2289 18.3839 30.5329 18.7199 29.7649 19.0079C28.9969 19.2719 28.2889 19.4039 27.6409 19.4039C27.1609 19.4039 26.6929 19.3319 26.2369 19.1879C25.8049 19.0199 25.3969 18.7679 25.0129 18.4319C24.4129 19.0079 23.8609 19.3319 23.3569 19.4039C22.8769 19.4759 22.6369 19.2719 22.6369 18.7919C22.6369 18.5759 22.7089 18.3479 22.8529 18.1079C23.0209 17.8439 23.2249 17.6159 23.4649 17.4239C23.7049 17.2079 23.9689 17.0279 24.2569 16.8839C24.5449 16.7399 24.8089 16.6679 25.0489 16.6679C25.4329 16.6679 25.6729 16.7999 25.7689 17.0639C25.8889 17.3279 25.9369 17.5559 25.9129 17.7479ZM42.02 17.5679C42.164 17.4959 42.272 17.5319 42.344 17.6759C42.44 17.7959 42.428 17.9039 42.308 17.9999C41.804 18.3359 41.204 18.6479 40.508 18.9359C39.836 19.2239 39.128 19.4759 38.384 19.6919C37.64 19.9079 36.896 20.0759 36.152 20.1959C35.408 20.3159 34.712 20.3759 34.064 20.3759C33.656 20.3759 33.296 20.2559 32.984 20.0159C32.696 19.7759 32.552 19.4879 32.552 19.1519C32.552 18.9839 32.576 18.7919 32.624 18.5759C32.696 18.3359 32.768 18.1199 32.84 17.9279C32.312 17.9999 31.88 17.9399 31.544 17.7479C31.208 17.5559 31.04 17.2319 31.04 16.7759C31.04 16.6559 31.124 16.5839 31.292 16.5599C31.46 16.5359 31.544 16.6079 31.544 16.7759C31.544 17.0639 31.688 17.2679 31.976 17.3879C32.264 17.5079 32.648 17.4959 33.128 17.3519C33.272 17.3039 33.38 17.3519 33.452 17.4959C33.524 17.6159 33.512 17.7359 33.416 17.8559C33.296 18.0239 33.2 18.2399 33.128 18.5039C33.08 18.7439 33.056 18.9599 33.056 19.1519C33.056 19.3439 33.152 19.5119 33.344 19.6559C33.56 19.7999 33.8 19.8719 34.064 19.8719C34.688 19.8719 35.36 19.8119 36.08 19.6919C36.8 19.5719 37.52 19.4159 38.24 19.2239C38.96 19.0079 39.644 18.7679 40.292 18.5039C40.94 18.2159 41.516 17.9039 42.02 17.5679ZM42.2023 17.0639C42.2743 16.9439 42.3703 16.9199 42.4903 16.9919C42.6343 17.0639 42.6823 17.1599 42.6343 17.2799C42.5623 17.4239 42.4903 17.6039 42.4183 17.8199C42.3463 18.0359 42.2863 18.2519 42.2383 18.4679C42.2143 18.6599 42.2023 18.8399 42.2023 19.0079C42.2023 19.1519 42.2623 19.2239 42.3823 19.2239C42.7183 19.2239 43.0783 19.0679 43.4623 18.7559C43.8703 18.4439 44.2183 18.0839 44.5063 17.6759C44.6743 17.4359 44.8543 17.4479 45.0463 17.7119C45.2623 18.0239 45.5143 18.2999 45.8023 18.5399C46.0903 18.7799 46.4863 18.8999 46.9903 18.8999C47.2783 18.8999 47.6023 18.8519 47.9623 18.7559C48.3223 18.6599 48.6823 18.5519 49.0423 18.4319C49.4263 18.2879 49.7743 18.1439 50.0863 17.9999C50.3983 17.8559 50.6383 17.7239 50.8063 17.6039C50.9503 17.4839 51.0823 17.4959 51.2023 17.6399C51.3223 17.7599 51.2983 17.8799 51.1303 17.9999C50.9383 18.1439 50.6743 18.2999 50.3383 18.4679C50.0023 18.6359 49.6303 18.7919 49.2223 18.9359C48.8383 19.0559 48.4423 19.1639 48.0343 19.2599C47.6263 19.3559 47.2783 19.4039 46.9903 19.4039C46.4623 19.4039 46.0063 19.2839 45.6223 19.0439C45.2383 18.7799 44.9383 18.5039 44.7223 18.2159C44.4823 18.5279 44.1343 18.8639 43.6783 19.2239C43.2223 19.5599 42.7903 19.7279 42.3823 19.7279C42.0943 19.7279 41.9023 19.6319 41.8063 19.4399C41.7343 19.2239 41.7103 18.9719 41.7343 18.6839C41.7823 18.3959 41.8543 18.1079 41.9503 17.8199C42.0463 17.5079 42.1303 17.2559 42.2023 17.0639ZM50.8457 17.7479C50.8937 17.5799 50.9897 17.5199 51.1337 17.5679C51.3017 17.6159 51.3737 17.6999 51.3497 17.8199L51.1697 18.6839C51.6497 18.3479 52.1057 18.0479 52.5377 17.7839C52.9937 17.5199 53.3657 17.3879 53.6537 17.3879C53.9657 17.3879 54.1697 17.4839 54.2657 17.6759C54.3857 17.8439 54.4817 18.0119 54.5537 18.1799C54.6497 18.3959 54.7937 18.6119 54.9857 18.8279C55.1777 19.0439 55.5257 19.1519 56.0297 19.1519C56.5097 19.1519 57.1577 19.0439 57.9737 18.8279C58.8137 18.5879 59.9057 18.1679 61.2497 17.5679C61.3937 17.5199 61.4897 17.5679 61.5377 17.7119C61.6097 17.8319 61.5857 17.9279 61.4657 17.9999C60.0497 18.6239 58.9097 19.0559 58.0457 19.2959C57.2057 19.5359 56.5337 19.6559 56.0297 19.6559C55.6937 19.6559 55.4177 19.6199 55.2017 19.5479C54.9857 19.4759 54.8057 19.3799 54.6617 19.2599C54.5177 19.1159 54.4097 18.9719 54.3377 18.8279C54.2657 18.6839 54.1937 18.5399 54.1217 18.3959C54.0017 18.0599 53.8457 17.8919 53.6537 17.8919C53.3897 17.8919 53.0657 18.0239 52.6817 18.2879C52.2977 18.5279 51.7217 18.9359 50.9537 19.5119C50.9057 19.5599 50.8217 19.5959 50.7017 19.6199C50.5817 19.6199 50.5337 19.5599 50.5577 19.4399L50.8457 17.7479ZM92.4271 8.42389C92.2831 8.44789 92.1991 8.37589 92.1751 8.20789C92.1751 8.03989 92.2351 7.94389 92.3551 7.91989C92.8591 7.82389 93.3391 7.64389 93.7951 7.37989C94.2511 7.11589 94.6351 6.81589 94.9471 6.47989C95.2831 6.11989 95.5471 5.73589 95.7391 5.32789C95.9311 4.89589 96.0271 4.46389 96.0271 4.03189C96.0271 3.55189 95.8591 3.09589 95.5231 2.66389C95.2111 2.23189 94.7671 1.85989 94.1911 1.54789C93.6391 1.21189 92.9911 0.959894 92.2471 0.791893C91.5031 0.599893 90.6991 0.503893 89.8351 0.503893C88.0831 0.503893 86.3911 0.707893 84.7591 1.11589C83.1511 1.52389 81.6391 2.08789 80.2231 2.80789C78.8311 3.52789 77.5591 4.36789 76.4071 5.32789C75.2791 6.26389 74.3071 7.28389 73.4911 8.38789C72.6751 9.46789 72.0391 10.5839 71.5831 11.7359C71.1511 12.8879 70.9351 14.0279 70.9351 15.1559C70.9351 16.3079 71.2351 17.1959 71.8351 17.8199C72.4351 18.4439 73.2391 18.7559 74.2471 18.7559C75.4711 18.7559 76.5991 18.6599 77.6311 18.4679C78.6631 18.2759 79.6711 18.0719 80.6551 17.8559C81.5671 17.6639 82.4671 17.4839 83.3551 17.3159C84.2431 17.1239 85.2031 17.0279 86.2351 17.0279C87.5071 17.0279 88.5271 17.2799 89.2951 17.7839C90.0631 18.2639 90.6151 18.9599 90.9511 19.8719C91.6471 19.6799 92.3191 19.4879 92.9671 19.2959C93.6391 19.0799 94.3111 18.8759 94.9831 18.6839C95.6311 18.4919 96.2911 18.2999 96.9631 18.1079C97.6351 17.9159 98.2711 17.7239 98.8711 17.5319C99.0391 17.5319 99.1351 17.6039 99.1591 17.7479C99.2071 17.8679 99.1591 17.9639 99.0151 18.0359C98.3911 18.2279 97.7551 18.4199 97.1071 18.6119C96.4591 18.8039 95.7991 18.9959 95.1271 19.1879C94.4551 19.3799 93.7831 19.5719 93.1111 19.7639C92.4631 19.9559 91.7911 20.1599 91.0951 20.3759C91.2631 20.9519 91.3471 21.6479 91.3471 22.4639C91.3471 23.4719 91.1191 24.4319 90.6631 25.3439C90.2071 26.2799 89.5951 27.1439 88.8271 27.9359C88.0831 28.7519 87.2191 29.4839 86.2351 30.1319C85.2511 30.8039 84.2191 31.3679 83.1391 31.8239C82.0591 32.3039 80.9791 32.6639 79.8991 32.9039C78.8191 33.1679 77.8111 33.2999 76.8751 33.2999C76.0351 33.2999 75.3151 33.0239 74.7151 32.4719C74.1391 31.9199 73.8511 31.2479 73.8511 30.4559C73.8511 29.3519 74.3311 28.3079 75.2911 27.3239C76.2511 26.3399 77.5111 25.4159 79.0711 24.5519C80.6311 23.6879 82.3951 22.8839 84.3631 22.1399C86.3551 21.3959 88.3831 20.6999 90.4471 20.0519C89.8231 18.3719 88.4191 17.5319 86.2351 17.5319C85.2751 17.5319 84.3511 17.6279 83.4631 17.8199C82.5991 17.9879 81.7111 18.1679 80.7991 18.3599C79.8151 18.5759 78.7951 18.7799 77.7391 18.9719C76.7071 19.1639 75.5431 19.2599 74.2471 19.2599C73.0951 19.2599 72.1711 18.8999 71.4751 18.1799C70.7791 17.4599 70.4311 16.4519 70.4311 15.1559C70.4311 14.0039 70.6591 12.8279 71.1151 11.6279C71.5711 10.4279 72.2071 9.26389 73.0231 8.13589C73.8631 7.00789 74.8711 5.95189 76.0471 4.96789C77.2231 3.98389 78.5311 3.13189 79.9711 2.41189C81.4111 1.66789 82.9591 1.07989 84.6151 0.647893C86.2711 0.215893 88.0111 -0.000107288 89.8351 -0.000107288C90.7711 -0.000107288 91.6351 0.107893 92.4271 0.323893C93.2431 0.539893 93.9511 0.827893 94.5511 1.18789C95.1751 1.54789 95.6551 1.97989 95.9911 2.48389C96.3511 2.96389 96.5311 3.47989 96.5311 4.03189C96.5311 4.51189 96.4231 4.99189 96.2071 5.47189C95.9911 5.95189 95.6911 6.39589 95.3071 6.80389C94.9471 7.18789 94.5151 7.52389 94.0111 7.81189C93.5311 8.09989 93.0031 8.30389 92.4271 8.42389ZM90.8431 22.4639C90.8431 21.6959 90.7591 21.0479 90.5911 20.5199C88.5271 21.1439 86.5231 21.8039 84.5791 22.4999C82.6351 23.2199 80.9071 23.9879 79.3951 24.8039C77.8831 25.6199 76.6591 26.4959 75.7231 27.4319C74.8111 28.3679 74.3551 29.3759 74.3551 30.4559C74.3551 31.1039 74.5951 31.6559 75.0751 32.1119C75.5791 32.5679 76.1791 32.7959 76.8751 32.7959C77.7871 32.7959 78.7591 32.6759 79.7911 32.4359C80.8471 32.1959 81.8911 31.8479 82.9231 31.3919C83.9551 30.9359 84.9391 30.3959 85.8751 29.7719C86.8351 29.1479 87.6751 28.4519 88.3951 27.6839C89.1391 26.9159 89.7271 26.0879 90.1591 25.1999C90.6151 24.3359 90.8431 23.4239 90.8431 22.4639ZM98.9796 17.0639C99.0516 16.9439 99.1476 16.9199 99.2676 16.9919C99.4116 17.0639 99.4596 17.1599 99.4116 17.2799C99.3396 17.4239 99.2676 17.6039 99.1956 17.8199C99.1236 18.0359 99.0636 18.2519 99.0156 18.4679C98.9916 18.6599 98.9796 18.8399 98.9796 19.0079C98.9796 19.1519 99.0396 19.2239 99.1596 19.2239C99.4956 19.2239 99.8556 19.0679 100.24 18.7559C100.648 18.4439 100.996 18.0839 101.284 17.6759C101.452 17.4359 101.632 17.4479 101.824 17.7119C102.04 18.0239 102.292 18.2999 102.58 18.5399C102.868 18.7799 103.264 18.8999 103.768 18.8999C104.056 18.8999 104.38 18.8519 104.74 18.7559C105.1 18.6599 105.46 18.5519 105.82 18.4319C106.204 18.2879 106.552 18.1439 106.864 17.9999C107.176 17.8559 107.416 17.7239 107.584 17.6039C107.728 17.4839 107.86 17.4959 107.98 17.6399C108.1 17.7599 108.076 17.8799 107.908 17.9999C107.716 18.1439 107.452 18.2999 107.116 18.4679C106.78 18.6359 106.408 18.7919 106 18.9359C105.616 19.0559 105.22 19.1639 104.812 19.2599C104.404 19.3559 104.056 19.4039 103.768 19.4039C103.24 19.4039 102.784 19.2839 102.4 19.0439C102.016 18.7799 101.716 18.5039 101.5 18.2159C101.26 18.5279 100.912 18.8639 100.456 19.2239C99.9996 19.5599 99.5676 19.7279 99.1596 19.7279C98.8716 19.7279 98.6796 19.6319 98.5836 19.4399C98.5116 19.2239 98.4876 18.9719 98.5116 18.6839C98.5596 18.3959 98.6316 18.1079 98.7276 17.8199C98.8236 17.5079 98.9076 17.2559 98.9796 17.0639ZM107.587 17.7479C107.635 17.6279 107.719 17.5799 107.839 17.6039C107.983 17.6279 108.067 17.6999 108.091 17.8199L107.047 23.1479C108.175 21.0119 109.207 19.5239 110.143 18.6839C111.079 17.8199 111.811 17.3879 112.339 17.3879C112.603 17.3879 112.807 17.4599 112.951 17.6039C113.095 17.7479 113.167 17.9159 113.167 18.1079C113.167 18.3719 113.011 18.6599 112.699 18.9719C112.411 19.2599 111.967 19.3919 111.367 19.3679C111.223 19.3199 111.151 19.2239 111.151 19.0799C111.175 18.9359 111.247 18.8639 111.367 18.8639C111.775 18.8879 112.087 18.8159 112.303 18.6479C112.543 18.4559 112.663 18.2759 112.663 18.1079C112.663 17.9639 112.555 17.8919 112.339 17.8919C112.075 17.8919 111.751 18.0239 111.367 18.2879C110.983 18.5279 110.539 18.9359 110.035 19.5119C109.555 20.0639 109.027 20.7959 108.451 21.7079C107.875 22.6439 107.263 23.7839 106.615 25.1279C106.567 25.2479 106.483 25.2839 106.363 25.2359C106.219 25.1879 106.159 25.1039 106.183 24.9839L107.587 17.7479ZM116.912 13.4999C116.96 13.3559 117.068 13.2959 117.236 13.3199C117.404 13.3439 117.464 13.4519 117.416 13.6439L117.308 14.0759C119.18 13.6919 121.052 13.3799 122.924 13.1399C124.82 12.8999 126.824 12.7439 128.936 12.6719C129.128 12.6719 129.224 12.7679 129.224 12.9599C129.224 13.1279 129.128 13.1999 128.936 13.1759C126.8 13.2719 124.784 13.4399 122.888 13.6799C121.016 13.9199 119.108 14.2319 117.164 14.6159C117.116 14.9519 117.068 15.2999 117.02 15.6599C116.972 15.9959 116.948 16.3319 116.948 16.6679C116.948 17.1239 116.984 17.5679 117.056 17.9999C117.152 18.4319 117.308 18.8279 117.524 19.1879C117.74 19.5239 118.016 19.8119 118.352 20.0519C118.712 20.2919 119.168 20.4479 119.72 20.5199C119.936 20.5439 120.02 20.6399 119.972 20.8079C119.948 20.9759 119.84 21.0479 119.648 21.0239C119.024 20.9519 118.496 20.7719 118.064 20.4839C117.656 20.2199 117.332 19.8959 117.092 19.5119C116.852 19.1039 116.684 18.6599 116.588 18.1799C116.492 17.6759 116.444 17.1719 116.444 16.6679C116.444 16.0439 116.504 15.3959 116.624 14.7239C115.976 14.8679 115.328 15.0119 114.68 15.1559C114.008 15.2999 113.324 15.4559 112.628 15.6239C112.436 15.6959 112.316 15.6359 112.268 15.4439C112.22 15.2519 112.292 15.1439 112.484 15.1199C113.228 14.9519 113.948 14.7959 114.644 14.6519C115.34 14.4839 116.036 14.3279 116.732 14.1839C116.78 14.0639 116.804 13.9559 116.804 13.8599C116.828 13.7399 116.864 13.6199 116.912 13.4999ZM125.44 17.7479C125.392 17.8679 125.296 17.9279 125.152 17.9279C125.008 17.9039 124.936 17.8199 124.936 17.6759C124.96 17.5799 124.948 17.4719 124.9 17.3519C124.852 17.2319 124.744 17.1719 124.576 17.1719C124.384 17.1719 124.18 17.2319 123.964 17.3519C123.748 17.4479 123.544 17.5799 123.352 17.7479C123.16 17.9159 122.992 18.0959 122.848 18.2879C122.728 18.4559 122.668 18.6239 122.668 18.7919C122.668 18.8879 122.716 18.9359 122.812 18.9359C122.908 18.9119 123.028 18.8639 123.172 18.7919C123.34 18.6959 123.52 18.5879 123.712 18.4679C123.904 18.3239 124.096 18.1679 124.288 17.9999C124.432 17.8799 124.552 17.8319 124.648 17.8559C124.744 17.8799 124.84 17.9399 124.936 18.0359C125.272 18.3719 125.644 18.5999 126.052 18.7199C126.46 18.8399 126.832 18.8999 127.168 18.8999C127.768 18.8999 128.416 18.7679 129.112 18.5039C129.832 18.2399 130.492 17.9279 131.092 17.5679C131.284 17.4959 131.404 17.5319 131.452 17.6759C131.524 17.7959 131.5 17.9039 131.38 17.9999C130.756 18.3839 130.06 18.7199 129.292 19.0079C128.524 19.2719 127.816 19.4039 127.168 19.4039C126.688 19.4039 126.22 19.3319 125.764 19.1879C125.332 19.0199 124.924 18.7679 124.54 18.4319C123.94 19.0079 123.388 19.3319 122.884 19.4039C122.404 19.4759 122.164 19.2719 122.164 18.7919C122.164 18.5759 122.236 18.3479 122.38 18.1079C122.548 17.8439 122.752 17.6159 122.992 17.4239C123.232 17.2079 123.496 17.0279 123.784 16.8839C124.072 16.7399 124.336 16.6679 124.576 16.6679C124.96 16.6679 125.2 16.7999 125.296 17.0639C125.416 17.3279 125.464 17.5559 125.44 17.7479Z" fill="black"/>
</svg>
